<svg width="570" height="240" viewBox="0 0 570 240" fill="none" xmlns="http://www.w3.org/2000/svg">
<g clip-path="url(#clip0_1_6940)">
<path d="M438.691 160.097L440.258 153.452H452.961V203.485C452.961 213.256 450.227 220.096 443.777 225.176C438.894 228.89 432.244 231.624 424.235 231.624C413.289 231.624 405.472 227.91 399.22 221.852L407.234 210.712C411.143 214.425 416.418 217.749 423.258 217.749C434.006 217.749 438.694 212.471 438.694 204.654V200.94C434.398 205.436 429.318 207.193 423.65 207.193C408.796 207.193 397.07 195.075 397.07 179.639C397.07 164.392 409.188 152.669 424.04 152.669C430.097 152.672 435.568 155.601 438.691 160.097ZM425.799 165.767C418.18 165.767 412.117 171.627 412.117 179.639C412.117 187.261 418.18 193.318 425.799 193.318C433.419 193.318 439.476 187.261 439.476 179.639C439.476 171.627 433.419 165.767 425.799 165.767ZM343.131 78.7984C337.071 78.7984 331.988 82.3171 330.819 87.9849H355.049C353.88 82.512 348.997 78.7984 343.131 78.7984ZM343.914 121.207C327.695 121.207 315.772 110.069 315.772 93.8476C315.772 79.1881 326.521 66.0959 343.524 66.0959C356.226 66.0959 369.321 75.6694 369.321 93.4551C369.321 94.8219 369.322 96.5841 368.932 98.5355H330.627C331.991 104.398 337.272 108.312 343.719 108.312C349.582 108.312 354.077 106.16 357.791 102.249L366.585 111.238C360.92 117.688 352.711 121.207 343.914 121.207ZM506.312 78.7984C500.255 78.7984 495.177 82.3171 494 87.9849H518.233C517.063 82.512 512.175 78.7984 506.312 78.7984ZM507.097 121.207C490.879 121.207 478.956 110.069 478.956 93.8476C478.956 79.1881 489.704 66.0959 506.708 66.0959C519.41 66.0959 532.505 75.6694 532.505 93.4551C532.505 94.8219 532.505 96.5841 532.115 98.5355H493.808C495.18 104.398 500.455 108.312 506.903 108.312C512.762 108.312 517.258 106.16 520.975 102.249L529.766 111.238C524.098 117.688 515.889 121.207 507.097 121.207ZM543.64 164.787C537.583 164.787 532.502 168.306 531.33 173.974H555.563C554.389 168.501 549.503 164.787 543.64 164.787ZM544.423 207.193C528.199 207.193 516.281 196.055 516.281 179.834C516.281 165.174 527.029 152.082 544.033 152.082C556.735 152.082 569.833 161.655 569.833 179.441C569.833 180.808 569.833 182.57 569.435 184.522H531.136C532.502 190.384 537.781 194.293 544.228 194.293C550.09 194.293 554.586 192.144 558.3 188.235L567.091 197.224C561.423 203.677 553.219 207.193 544.423 207.193ZM304.044 164.787C297.984 164.787 292.906 168.306 291.731 173.974H315.964C314.795 168.501 309.91 164.787 304.044 164.787ZM304.826 207.193C288.608 207.193 276.685 196.055 276.685 179.834C276.685 165.174 287.43 152.082 304.431 152.082C317.136 152.082 330.231 161.655 330.231 179.441C330.231 180.808 330.231 182.57 329.842 184.522H291.534C292.903 190.384 298.184 194.293 304.632 194.293C310.491 194.293 314.984 192.144 318.704 188.235L327.495 197.224C321.83 203.677 313.623 207.193 304.826 207.193ZM224.508 205.826V128.241H239.944V191.169H273.559V205.826H224.508ZM283.33 119.84V67.4627H295.837L297.405 75.0848C299.746 70.1964 304.434 66.8781 310.692 66.8781C312.059 66.8781 313.426 67.0702 314.795 67.4627V81.3372C313.033 80.9475 311.477 80.7498 309.715 80.7498C302.68 80.7498 297.794 85.0508 297.794 93.4523V119.837L283.33 119.84ZM538.17 119.84V67.4627H550.675L552.24 75.0848C554.586 70.1964 559.274 66.8781 565.529 66.8781C566.899 66.8781 568.263 67.0702 569.636 67.4627V81.3372C567.873 80.9475 566.314 80.7498 564.552 80.7498C557.518 80.7498 552.635 85.0508 552.635 93.4523V119.837L538.17 119.84ZM437.132 88.9592C437.132 83.2914 434.006 79.7727 429.118 79.7727C423.453 79.7727 420.521 83.2914 420.521 89.1569V119.837H406.059V88.9592C406.059 83.2914 402.933 79.7727 398.048 79.7727C392.38 79.7727 389.448 83.2914 389.448 89.1569V119.837H374.987V67.4627H387.689L389.256 74.3025C389.256 74.3025 392.383 66.0959 402.154 66.0959C408.217 66.0959 413.294 68.6347 416.813 73.9156L417.206 74.5002L417.598 73.9156C422.681 66.6833 428.934 66.0959 432.842 66.0959C443.98 66.0959 451.602 74.5002 451.602 86.4204V119.84H437.14V88.9592H437.132ZM466.251 60.4308C461.17 60.4308 457.262 56.5196 457.262 51.634C457.262 46.5536 461.17 42.6451 466.251 42.6451C471.331 42.6451 475.24 46.5508 475.24 51.634C475.24 56.5168 471.331 60.4308 466.251 60.4308ZM458.826 67.4627H473.285V119.834H458.826V67.4627ZM364.041 165.767C356.221 165.767 350.364 171.627 350.364 179.639C350.364 187.261 356.221 193.318 364.041 193.318C371.663 193.318 377.525 187.261 377.525 179.639C377.525 171.627 371.663 165.767 364.041 165.767ZM361.109 207.193C347.235 207.193 335.12 194.49 335.12 179.639C335.12 164.982 347.235 152.669 361.109 152.669C368.929 152.669 374.201 155.403 377.33 160.289L378.895 153.449H391.597V205.823H378.895L377.33 199.176C374.201 203.872 368.342 207.193 361.109 207.193ZM485.598 207.193C474.068 207.193 460.001 200.94 460.001 181.398V153.449H474.457V180.418C474.457 189.407 478.566 193.316 485.598 193.316C492.045 193.316 496.739 188.823 496.739 180.418V153.449H511.201V181.398C511.201 200.94 496.934 207.193 485.598 207.193ZM239.944 78.996H248.936C256.756 78.996 262.421 74.6978 262.421 66.8781C262.421 59.0556 256.756 54.9551 248.936 54.9551H239.944V78.996ZM224.508 119.84V40.2984H249.715C266.132 40.2984 278.444 50.0695 278.444 66.8781C278.444 83.8788 266.326 93.8476 249.715 93.8476H239.944V119.84H224.508Z" fill="#3D195B"/>
<path d="M169.213 109.812C163.966 114.111 159.519 116.507 159.519 116.507L159.579 130.135C163.329 134.218 167.029 137.6 169.799 143.763C175.055 134.533 174.044 120.964 169.213 109.812ZM164.947 154.423C164.947 154.423 163.875 148.802 159.316 143.556L148.915 143.803C148.915 143.803 134.895 155.557 126.343 155.833C126.343 155.833 131.054 164.382 133.439 168.849C138.14 167.844 146.418 164.225 149.754 160.438C149.754 160.438 151.958 167.37 151.543 175.555C156.223 172.912 162.672 165.733 164.947 154.423ZM151.543 129.81L151.524 116.231C151.524 116.231 145.307 114.289 138.676 109.269C125.353 111.232 109.22 124.307 109.22 124.307C109.22 124.307 114.669 134.395 120.633 145.282C131.115 146.712 146.56 133.794 151.543 129.81ZM187.075 186.353L178.503 177.093C176.057 202.12 163.492 223.371 140.415 238.192L136.887 224.692C117.297 238.497 83.6767 247.451 54.7972 231.516C58.3857 213.668 61.5698 195.583 54.7365 173.928C38.7452 198.087 24.5935 207.554 24.5935 207.554C13.7878 189.853 14.7581 154.344 17.9827 143.891L0 149.325C0 137.393 8.80433 112.08 21.5611 97.8603L10.3307 96.1051H10.3196C17.9513 80.8896 29.3434 67.7745 43.2828 57.9234L43.3023 57.9123C39.1174 64.3614 39.0568 80.277 51.3182 86.3316C46.1124 77.4272 45.4857 66.4223 50.924 60.7227C56.3622 54.9737 65.5102 56.9459 71.3529 61.4031C69.6142 56.4332 64.5196 50.1813 56.8879 49.7573H56.8767C71.2912 42.5193 87.6566 38.4468 104.972 38.4468C108.207 38.4468 111.431 38.5848 114.585 38.8609C119.619 40.8331 127.008 47.7555 130.455 52.0648C130.455 52.0648 130.698 46.9864 127.807 40.8528C146.558 45.31 155.504 52.755 159.254 56.3444C160.022 64.2529 162.448 68.996 165.652 76.5101C159.577 69.8736 144.314 59.1646 137.026 56.6008C137.026 56.6008 136.429 63.4542 133.922 66.7477C119.407 56.5318 112.28 53.958 112.28 53.958C96.3497 56.1866 86.0999 62.1821 80.5302 66.8957L85.3822 70.9287C75.7793 73.8082 69.5424 81.8547 69.5424 81.8547C69.6132 82.0028 78.1244 83.1859 78.1244 83.1859C78.1244 83.1859 77.2551 92.9384 89.7692 99.0522C100.494 104.288 115.909 97.7901 130.425 103.47C120.883 92.7215 114.282 87.9192 114.282 87.9192C114.282 87.9192 110.491 87.1501 107.823 87.1698C104.487 87.1892 99.5136 87.8305 94.0652 85.7597C91.4573 84.7637 88.4147 83.0085 86.0291 81.549C86.0291 81.549 92.7309 74.8337 102.526 73.3546C102.526 73.3546 111.361 75.7804 118.356 80.8292C123.005 76.4115 127.857 76.5495 127.857 76.5495C127.857 76.5495 123.046 80.9278 124.501 86.233C131.486 92.3074 139.067 101.005 139.067 101.005C146.79 96.8828 163.58 97.8295 167.027 101.734C162.66 96.2024 156.363 91.5875 151.491 87.6431C150.894 85.5723 145.577 78.3541 144.678 77.6835C144.678 77.6835 149.732 79.2021 154.25 83.1564C155.544 81.3518 157.97 79.5177 161.275 78.7091C164.672 81.4899 165.278 85.7597 165.187 86.4697C163.661 88.2545 162.145 88.9842 162.145 88.9842L170.332 97.6323L171.151 91.4297C190.013 117.709 200.294 148.12 187.072 186.351M38.1157 20.0375C48.9922 24.8989 55.9771 31.0325 57.2507 31.9692C56.6746 29.2279 54.5316 16.0339 53.2984 7.83947C59.6363 12.129 74.3439 22.0886 79.1858 25.323C81.1569 19.3965 87.9901 0.0394437 87.9901 0.0394437C87.9901 0.0394437 100.342 19.5444 102.455 22.7098C105.033 20.0769 119.791 4.05286 123.612 0C124.249 9.22 125.118 22.4041 125.34 24.3862C126.078 23.4099 131.729 15.6789 141.2 8.55932C137.096 16.4481 135.135 27.3346 134.266 36.0813C124.946 33.547 115.111 32.1862 104.982 32.1862C85.5237 32.1862 67.2479 37.1758 51.4486 45.9422C48.5778 37.4914 44.0796 26.9796 38.1157 20.0375Z" fill="#3D195B"/>
</g>
<defs>
<clipPath id="clip0_1_6940">
<rect width="569.833" height="240" fill="white"/>
</clipPath>
</defs>
</svg>
