<svg width="512" height="512" viewBox="0 0 512 512" fill="none" xmlns="http://www.w3.org/2000/svg">
<g clip-path="url(#clip0_1_3308)">
<g clip-path="url(#clip1_1_3308)">
<mask id="mask0_1_3308" style="mask-type:luminance" maskUnits="userSpaceOnUse" x="19" y="-14" width="476" height="541">
<path d="M494.01 -13.043H19.8844V526.687H494.01V-13.043Z" fill="white"/>
</mask>
<g mask="url(#mask0_1_3308)">
<path d="M253.069 509.987C195.221 499.252 140.946 469.433 100.396 426.491C59.2453 382.657 35.9845 328.681 35.6877 275.011V2.4635H478.207V275.011C477.61 328.984 454.649 382.66 413.498 426.491C372.944 469.431 318.97 499.252 260.825 509.987L256.949 510.584L253.069 509.987Z" fill="#5F0041"/>
</g>
<mask id="mask1_1_3308" style="mask-type:luminance" maskUnits="userSpaceOnUse" x="19" y="-14" width="476" height="541">
<path d="M494.01 -13.043H19.8844V526.687H494.01V-13.043Z" fill="white"/>
</mask>
<g mask="url(#mask1_1_3308)">
<path d="M49.4076 16.1796V275.012C50.004 325.407 71.7724 375.801 110.537 417.253C149.004 458.105 200.591 486.435 255.757 496.868L256.949 497.166L258.142 496.868C313.308 486.431 364.895 458.401 403.362 417.253C442.127 375.803 463.898 325.407 464.492 274.715V16.1796H49.4076ZM450.778 274.715C449.883 371.03 364.599 462.277 256.95 483.154C149.004 462.579 64.0181 371.036 63.1221 275.012V29.8995H451.069V274.715H450.778Z" fill="white"/>
</g>
<mask id="mask2_1_3308" style="mask-type:luminance" maskUnits="userSpaceOnUse" x="19" y="-14" width="476" height="541">
<path d="M494.01 -13.043H19.8844V526.687H494.01V-13.043Z" fill="white"/>
</mask>
<g mask="url(#mask2_1_3308)">
<path d="M135.581 360.293C137.072 359.995 137.966 359.697 138.563 358.206C139.159 356.715 139.159 354.031 135.283 352.54L126.933 349.26L120.969 364.468L129.617 367.748C132.301 368.941 135.581 368.345 136.774 365.363C137.669 362.678 136.774 361.188 135.581 360.293ZM132.301 362.678C131.705 363.871 130.81 363.871 129.915 363.275L127.232 362.082L128.425 359.399L131.406 360.591C132.301 361.188 132.599 361.784 132.301 362.678ZM133.792 357.013C133.494 357.908 132.599 357.908 131.705 357.609L129.319 356.715L130.214 354.329L132.599 355.224C133.792 355.82 134.09 356.417 133.792 357.013Z" fill="white"/>
</g>
<mask id="mask3_1_3308" style="mask-type:luminance" maskUnits="userSpaceOnUse" x="19" y="-14" width="476" height="541">
<path d="M494.01 -13.043H19.8844V526.687H494.01V-13.043Z" fill="white"/>
</mask>
<g mask="url(#mask3_1_3308)">
<path d="M146.915 357.017L142.442 354.93L138.268 363.876C136.478 368.05 137.671 371.032 142.144 373.12C146.617 375.207 149.897 374.312 151.686 370.138L155.861 361.192L151.388 359.104L147.512 367.156C146.915 368.647 146.021 370.436 143.635 369.541C141.548 368.647 142.442 366.56 143.039 365.068L146.915 357.017Z" fill="white"/>
</g>
<mask id="mask4_1_3308" style="mask-type:luminance" maskUnits="userSpaceOnUse" x="19" y="-14" width="476" height="541">
<path d="M494.01 -13.043H19.8844V526.687H494.01V-13.043Z" fill="white"/>
</mask>
<g mask="url(#mask4_1_3308)">
<path d="M154.072 379.081L157.053 374.012L159.439 375.205C161.228 376.099 160.334 377.59 159.737 379.081C159.439 379.976 159.141 380.572 158.843 381.466L163.316 383.852C163.316 382.958 164.21 381.169 164.509 380.572C165.403 378.783 165.403 376.994 164.509 375.801C166.298 376.099 167.789 374.907 168.683 373.415C170.174 370.732 168.981 368.048 166.298 366.855L157.948 362.084L149.897 376.099L154.072 379.081ZM160.334 368.346L162.421 369.539C164.21 370.433 164.21 371.328 163.614 372.223C163.017 373.415 161.825 373.117 160.93 372.521L158.545 371.328L160.334 368.346Z" fill="white"/>
</g>
<mask id="mask5_1_3308" style="mask-type:luminance" maskUnits="userSpaceOnUse" x="19" y="-14" width="476" height="541">
<path d="M494.01 -13.043H19.8844V526.687H494.01V-13.043Z" fill="white"/>
</mask>
<g mask="url(#mask5_1_3308)">
<path d="M167.193 387.431L172.858 380.573L171.069 390.413L174.946 393.693L185.084 380.871L181.506 377.889L175.84 384.747L177.63 374.907L173.753 371.627L163.316 384.449L167.193 387.431Z" fill="white"/>
</g>
<mask id="mask6_1_3308" style="mask-type:luminance" maskUnits="userSpaceOnUse" x="19" y="-14" width="476" height="541">
<path d="M494.01 -13.043H19.8844V526.687H494.01V-13.043Z" fill="white"/>
</mask>
<g mask="url(#mask6_1_3308)">
<path d="M185.975 402.338L188.659 399.058L182.994 394.883L190.449 385.043L186.274 382.061L176.433 394.883L185.975 402.338Z" fill="white"/>
</g>
<mask id="mask7_1_3308" style="mask-type:luminance" maskUnits="userSpaceOnUse" x="19" y="-14" width="476" height="541">
<path d="M494.01 -13.043H19.8844V526.687H494.01V-13.043Z" fill="white"/>
</mask>
<g mask="url(#mask7_1_3308)">
<path d="M198.799 411.287L201.185 407.709L193.73 402.937L194.923 401.148L201.483 405.323L203.571 402.341L197.309 397.868L198.203 396.377L205.36 400.85L206.851 399.061V408.901L203.869 413.971L208.043 416.655L211.025 411.287L221.164 405.025L216.393 402.341L211.025 406.218L211.622 399.657L207.745 397.57L196.414 390.115L187.468 403.534L198.799 411.287Z" fill="white"/>
</g>
<mask id="mask8_1_3308" style="mask-type:luminance" maskUnits="userSpaceOnUse" x="19" y="-14" width="476" height="541">
<path d="M494.01 -13.043H19.8844V526.687H494.01V-13.043Z" fill="white"/>
</mask>
<g mask="url(#mask8_1_3308)">
<path d="M225.041 424.106L227.128 418.142L233.39 420.229L234.583 416.651L228.321 414.563L229.215 412.476L236.372 415.16L237.565 411.283L225.935 407.108L220.27 422.316L225.041 424.106Z" fill="white"/>
</g>
<mask id="mask9_1_3308" style="mask-type:luminance" maskUnits="userSpaceOnUse" x="19" y="-14" width="476" height="541">
<path d="M494.01 -13.043H19.8844V526.687H494.01V-13.043Z" fill="white"/>
</mask>
<g mask="url(#mask9_1_3308)">
<path d="M235.479 419.037C234.585 423.809 236.971 427.983 242.04 428.878C246.811 429.773 250.687 427.089 251.88 422.019C252.774 417.249 250.389 413.074 245.32 412.179C240.251 411.285 236.374 414.267 235.479 419.037ZM240.251 420.23C240.847 416.652 242.934 416.354 244.425 416.354C245.618 416.652 247.407 417.845 246.811 421.423C246.215 425.001 244.127 425.3 242.636 425.3C241.443 425.001 239.654 423.809 240.251 420.23Z" fill="white"/>
</g>
<mask id="mask10_1_3308" style="mask-type:luminance" maskUnits="userSpaceOnUse" x="19" y="-14" width="476" height="541">
<path d="M494.01 -13.043H19.8844V526.687H494.01V-13.043Z" fill="white"/>
</mask>
<g mask="url(#mask10_1_3308)">
<path d="M260.528 431.262C265.598 431.262 268.878 427.983 268.878 422.913C268.878 417.844 265.598 414.265 260.827 414.265C255.758 414.265 252.477 417.546 252.477 422.615C252.179 427.386 255.459 430.964 260.528 431.262ZM260.827 418.142C262.019 418.142 264.107 419.036 264.107 422.615C264.107 426.193 262.019 427.088 260.827 427.088C259.634 427.088 257.547 426.193 257.547 422.615C257.547 419.036 259.336 418.142 260.827 418.142Z" fill="white"/>
</g>
<mask id="mask11_1_3308" style="mask-type:luminance" maskUnits="userSpaceOnUse" x="19" y="-14" width="476" height="541">
<path d="M494.01 -13.043H19.8844V526.687H494.01V-13.043Z" fill="white"/>
</mask>
<g mask="url(#mask11_1_3308)">
<path d="M273.347 417.845L275.434 430.071L280.205 429.176L278.416 417.248L282.889 416.354L282.293 412.179L268.278 414.565L268.874 418.74L273.347 417.845Z" fill="white"/>
</g>
<mask id="mask12_1_3308" style="mask-type:luminance" maskUnits="userSpaceOnUse" x="19" y="-14" width="476" height="541">
<path d="M494.01 -13.043H19.8844V526.687H494.01V-13.043Z" fill="white"/>
</mask>
<g mask="url(#mask12_1_3308)">
<path d="M296.906 424.408C299.59 423.513 301.677 420.829 300.484 417.847C299.59 415.462 298.099 414.865 296.31 414.865C297.204 413.971 297.801 412.778 297.205 411.287C296.608 409.796 295.117 407.709 290.942 409.2L282.593 412.182L287.96 427.39L296.906 424.408ZM295.713 419.04C296.012 420.233 295.415 420.829 294.52 421.127L291.837 422.022L290.942 419.04L293.924 417.847C294.52 417.847 295.415 418.145 295.713 419.04ZM291.24 413.076C292.135 412.778 293.03 412.778 293.328 413.673C293.626 414.567 293.03 415.164 292.135 415.462L289.749 416.357L288.855 413.971L291.24 413.076Z" fill="white"/>
</g>
<mask id="mask13_1_3308" style="mask-type:luminance" maskUnits="userSpaceOnUse" x="19" y="-14" width="476" height="541">
<path d="M494.01 -13.043H19.8844V526.687H494.01V-13.043Z" fill="white"/>
</mask>
<g mask="url(#mask13_1_3308)">
<path d="M306.745 420.23L306.447 417.845L310.92 415.459L312.709 417.248L317.182 414.863L304.36 403.234L299.887 405.619L302.273 422.914L306.745 420.23ZM304.658 408.899L308.237 412.776L305.552 414.267L304.658 408.899Z" fill="white"/>
</g>
<mask id="mask14_1_3308" style="mask-type:luminance" maskUnits="userSpaceOnUse" x="19" y="-14" width="476" height="541">
<path d="M494.01 -13.043H19.8844V526.687H494.01V-13.043Z" fill="white"/>
</mask>
<g mask="url(#mask14_1_3308)">
<path d="M327.919 407.109L325.832 403.83L319.569 407.706L313.009 397.568L308.835 400.251L317.78 413.968L327.919 407.109Z" fill="white"/>
</g>
<mask id="mask15_1_3308" style="mask-type:luminance" maskUnits="userSpaceOnUse" x="19" y="-14" width="476" height="541">
<path d="M494.01 -13.043H19.8844V526.687H494.01V-13.043Z" fill="white"/>
</mask>
<g mask="url(#mask15_1_3308)">
<path d="M338.951 399.062L336.565 395.484L330.9 399.957L323.444 390.116L319.568 393.098L329.408 406.219L338.951 399.062Z" fill="white"/>
</g>
<mask id="mask16_1_3308" style="mask-type:luminance" maskUnits="userSpaceOnUse" x="19" y="-14" width="476" height="541">
<path d="M494.01 -13.043H19.8844V526.687H494.01V-13.043Z" fill="white"/>
</mask>
<g mask="url(#mask16_1_3308)">
<path d="M351.176 389.817C354.754 386.835 354.754 382.362 352.667 379.976L348.79 382.958C349.387 384.45 349.685 385.642 348.492 386.835C346.703 388.326 344.615 386.835 343.423 385.344C341.932 383.555 341.335 381.468 343.125 379.976C344.615 378.783 346.107 379.678 346.703 380.275L350.579 377.293C347.597 374.311 344.317 374.013 340.739 376.696C336.863 379.678 336.266 384.449 339.546 388.624C342.528 391.904 347.299 393.097 351.176 389.817Z" fill="white"/>
</g>
<mask id="mask17_1_3308" style="mask-type:luminance" maskUnits="userSpaceOnUse" x="19" y="-14" width="476" height="541">
<path d="M494.01 -13.043H19.8844V526.687H494.01V-13.043Z" fill="white"/>
</mask>
<g mask="url(#mask17_1_3308)">
<path d="M367.281 376.696L364.597 373.415L358.932 377.889L351.775 368.048L347.601 371.03L357.441 384.151L367.281 376.696Z" fill="white"/>
</g>
<mask id="mask18_1_3308" style="mask-type:luminance" maskUnits="userSpaceOnUse" x="19" y="-14" width="476" height="541">
<path d="M494.01 -13.043H19.8844V526.687H494.01V-13.043Z" fill="white"/>
</mask>
<g mask="url(#mask18_1_3308)">
<path d="M374.136 372.82C378.311 370.137 379.504 367.155 377.118 363.279L372.049 354.631L367.874 357.315L372.347 365.068C373.242 366.559 374.136 368.348 372.347 369.541C370.26 370.733 369.067 368.944 368.47 367.453L363.998 359.7L359.823 362.384L364.892 371.032C366.681 374.61 369.962 375.206 374.136 372.82Z" fill="white"/>
</g>
<mask id="mask19_1_3308" style="mask-type:luminance" maskUnits="userSpaceOnUse" x="19" y="-14" width="476" height="541">
<path d="M494.01 -13.043H19.8844V526.687H494.01V-13.043Z" fill="white"/>
</mask>
<g mask="url(#mask19_1_3308)">
<path d="M389.642 365.362C392.326 364.467 394.413 361.783 393.22 358.801C392.326 356.416 390.835 355.819 389.046 355.819C389.94 354.925 390.537 353.732 389.94 352.241C389.344 350.75 387.555 348.662 383.678 350.154L375.329 353.136L380.696 368.343L389.642 365.362ZM388.45 359.994C388.747 361.187 388.151 361.783 387.257 362.081L384.573 362.976L383.678 359.994L386.66 358.801C387.555 358.801 388.151 359.099 388.45 359.994ZM383.976 354.03C384.871 353.732 385.765 353.732 386.064 354.626C386.362 355.521 385.765 356.118 384.871 356.416L382.486 357.31L381.591 354.925L383.976 354.03Z" fill="white"/>
</g>
<mask id="mask20_1_3308" style="mask-type:luminance" maskUnits="userSpaceOnUse" x="19" y="-14" width="476" height="541">
<path d="M494.01 -13.043H19.8844V526.687H494.01V-13.043Z" fill="white"/>
</mask>
<g mask="url(#mask20_1_3308)">
<path d="M414.394 329.281L413.5 328.386H413.202C422.148 312.88 419.464 298.268 419.464 297.374C419.166 296.181 418.569 293.498 415.885 291.112C412.605 288.13 407.238 286.937 400.081 287.831C392.328 288.726 386.663 291.41 384.575 295.585L384.277 295.883C383.681 297.075 382.786 299.461 383.084 302.741C383.382 305.127 384.277 308.109 384.873 310.494C380.401 311.091 376.226 311.687 372.349 313.178C368.473 314.669 366.385 316.458 365.789 318.844C365.491 319.44 365.491 320.335 365.789 320.931C365.789 320.931 364.894 333.753 366.385 345.681C347.599 354.03 336.864 364.169 336.864 364.169C295.713 402.338 262.911 403.531 259.035 403.531H258.737C258.439 403.531 224.147 404.127 180.908 364.169C180.908 364.169 170.471 355.223 152.58 347.172C154.369 334.648 153.474 319.44 153.176 318.545C152.58 316.16 150.492 314.073 146.616 312.88C142.739 311.389 138.564 310.793 134.092 310.196C134.986 307.811 135.582 304.829 135.881 302.443C136.179 299.163 135.582 297.075 134.688 295.585C134.688 295.287 134.39 295.287 134.39 294.988C132.005 290.813 126.637 287.831 118.884 287.235C111.727 286.639 106.36 287.534 103.079 290.516C100.396 292.901 99.7995 295.585 99.5015 296.777C99.5015 297.374 96.8174 311.091 106.956 326.895C106.956 326.895 106.658 326.895 106.36 327.193C106.36 327.193 106.061 327.491 105.763 327.491C105.167 327.79 104.869 328.088 104.571 328.684C103.676 329.579 102.483 331.368 101.589 333.455C99.5015 338.227 98.3087 348.365 107.553 369.537L107.851 370.133L108.447 370.431C108.745 370.431 134.39 377.588 161.824 399.058C181.206 414.266 204.465 430.666 229.214 437.823L231.301 438.419C234.582 439.314 238.16 440.208 241.738 440.506L244.124 440.805C244.422 440.805 245.019 440.805 245.615 441.103H246.808C250.684 441.401 254.56 441.699 258.437 441.699C260.524 441.699 262.314 441.699 264.401 441.401C269.47 441.103 274.838 440.506 280.205 439.314C284.082 438.419 286.766 437.823 287.958 437.226C310.621 430.666 334.477 416.651 355.052 398.461C382.188 374.307 407.832 370.133 408.131 370.133H409.025L409.324 369.238C416.778 349.26 417.673 339.121 416.778 334.052C417.076 332.56 415.289 330.473 414.394 329.281ZM387.259 296.48C389.346 293.199 393.819 291.112 400.379 290.516C401.572 290.516 402.765 290.217 403.958 290.217C408.43 290.217 411.711 291.112 413.798 293.199C415.885 294.988 416.184 297.075 416.481 297.672V298.865V299.163C415.587 304.531 411.412 306.916 404.256 308.109L402.168 298.567L400.678 298.865C389.942 301.847 387.557 300.057 386.96 299.461C386.066 298.567 387.259 296.48 387.259 296.48ZM386.96 303.039C389.645 304.232 394.117 303.934 400.081 302.443L401.572 309.003C399.186 309.301 396.503 309.6 393.521 309.898H393.222C392.626 309.898 392.03 309.898 391.434 310.196C390.837 310.196 389.942 310.196 389.346 310.494H388.153C388.153 310.196 387.855 309.6 387.557 309.003C387.259 308.109 386.96 306.916 386.663 305.723C386.364 304.829 386.066 303.636 386.066 302.741C386.364 302.741 386.663 303.039 386.96 303.039ZM368.771 319.738C369.069 318.247 370.858 317.055 373.542 315.862C377.419 314.371 381.593 313.775 386.066 313.178C386.662 313.178 386.96 313.178 387.557 312.88C389.346 312.582 390.837 312.582 392.626 312.283H392.924H393.521H394.714C395.31 312.283 395.906 312.283 396.503 311.985C399.485 311.687 402.467 311.389 405.15 310.793C407.536 310.494 409.623 309.898 411.711 309.003C413.202 308.407 414.394 307.811 415.587 306.916C416.184 306.32 417.078 305.724 417.674 305.127V306.916C417.376 312.283 415.885 319.44 411.711 326.597C410.816 326.001 409.623 325.702 408.132 325.404C403.958 324.211 396.503 323.913 389.346 323.615C384.277 323.317 378.909 323.317 375.033 322.72C371.455 322.124 370.262 321.527 369.964 321.229C368.771 320.931 368.771 320.335 368.771 319.738ZM368.473 324.808V324.211C370.56 325.106 374.138 325.702 378.611 326.001C380.699 326.001 382.786 326.299 385.171 326.299H388.153C395.012 326.597 402.168 326.895 406.343 327.79C407.536 328.088 408.43 328.386 409.325 328.684C409.922 328.983 410.22 328.983 410.518 329.281C412.009 330.175 412.009 330.771 412.009 330.771C412.009 331.368 411.412 332.263 409.623 333.157C408.729 333.753 407.536 334.052 406.045 334.648C403.659 335.542 400.379 336.139 395.906 336.735C385.768 338.227 376.822 341.208 369.069 344.19C368.473 337.034 368.473 329.281 368.473 324.808ZM133.496 302.443C133.496 303.338 133.197 304.232 132.899 305.425C132.602 306.618 132.303 307.512 132.005 308.705C131.707 309.301 131.707 309.6 131.409 310.196H130.216C129.62 310.196 128.725 310.196 128.128 309.898C127.532 309.898 126.935 309.898 126.339 309.6H126.041C123.059 309.301 120.376 309.003 117.99 308.705L119.481 302.145C125.743 303.636 129.917 303.934 132.602 302.741C133.197 302.741 133.496 302.741 133.496 302.443ZM105.466 292.901C108.15 290.516 112.92 289.621 119.183 290.217C125.743 290.813 130.514 292.901 132.303 296.181C132.601 296.479 133.197 298.567 132.602 299.461C132.005 300.057 129.62 301.847 118.884 298.865L117.394 298.567L115.306 308.109C108.15 306.916 103.676 304.531 103.08 299.163V298.865V297.672C103.08 297.075 103.378 294.69 105.466 292.901ZM103.08 307.214C103.08 306.618 102.782 306.021 102.782 305.425C103.378 306.021 103.975 306.618 104.571 306.916C105.764 307.811 106.957 308.407 108.448 309.003C110.237 309.898 112.622 310.494 114.709 310.793C117.394 311.389 120.376 311.687 123.357 311.985C123.953 311.985 124.55 311.985 125.146 312.283H126.339H126.935H127.234C129.023 312.283 130.514 312.582 132.303 312.88C132.899 312.88 133.197 312.88 133.794 313.178C138.267 313.775 142.442 314.371 146.318 315.862C149.002 317.055 150.791 318.247 151.089 319.738C151.387 320.335 151.089 320.931 150.791 321.527C150.493 321.826 149.002 322.422 145.722 323.019C141.845 323.615 136.478 323.615 131.409 323.913C124.252 324.211 116.797 324.509 112.622 325.702C111.727 326.001 111.131 326.299 110.237 326.597C105.764 319.142 103.676 312.283 103.08 307.214ZM107.553 331.368V330.771C107.851 330.473 108.448 329.877 109.044 329.578C109.342 329.281 109.939 329.281 110.237 328.982C110.535 328.684 111.131 328.684 111.727 328.386C112.026 328.386 112.622 328.088 113.219 328.088C117.095 326.895 124.252 326.597 131.409 326.597C132.899 326.597 134.39 326.597 135.881 326.299C138.267 326.299 140.354 326.001 142.143 326.001C146.02 325.702 149.3 325.106 151.089 324.211V324.808C151.089 329.578 151.387 338.227 150.195 346.278C142.143 342.699 132.899 339.419 122.164 337.332C119.183 336.735 116.797 336.139 115.008 335.542C114.412 335.245 113.815 335.245 113.219 334.946C107.553 332.859 107.553 331.666 107.553 331.368ZM407.535 368.344C402.764 369.238 379.207 374.904 353.86 397.269C333.583 415.16 310.026 428.877 287.662 435.437C286.469 435.736 283.786 436.63 280.207 437.226C275.138 438.419 270.069 439.016 264.999 439.314C259.334 439.612 253.37 439.612 247.704 438.717H246.511C246.214 438.717 245.617 438.717 245.319 438.419L242.933 438.121C240.25 437.823 237.566 437.226 234.882 436.332L233.093 435.736C208.045 428.877 184.487 412.178 164.806 396.97C139.46 377.289 115.306 369.537 111.131 368.046C102.186 346.576 103.975 337.63 105.764 334.35C105.764 334.052 106.062 334.052 106.062 333.753C106.658 334.35 107.255 334.946 108.448 335.542C109.044 335.841 109.939 336.437 110.833 336.735C113.219 337.63 117.095 338.823 122.164 340.015C128.725 341.507 134.689 343.296 140.056 345.085C142.143 345.979 144.231 346.576 146.318 347.47C148.107 348.067 149.897 348.961 151.686 349.856C169.577 357.907 179.716 366.555 179.716 366.555C223.55 407.109 257.841 406.811 259.331 406.811H259.63C263.506 406.811 297.202 405.618 339.245 366.853C339.245 366.853 349.384 357.012 367.275 348.961C367.574 348.663 368.17 348.663 368.767 348.365C370.257 347.768 371.748 347.172 373.537 346.576C380.396 343.892 388.149 341.804 397.095 340.314C403.058 339.419 407.233 338.227 409.917 337.034C410.812 336.735 411.706 336.139 412.303 335.841C413.496 335.245 414.092 334.648 414.688 334.052C414.688 334.35 414.986 334.648 414.986 334.946C415.284 338.524 414.99 348.067 407.535 368.344Z" fill="white"/>
</g>
<mask id="mask21_1_3308" style="mask-type:luminance" maskUnits="userSpaceOnUse" x="19" y="-14" width="476" height="541">
<path d="M494.01 -13.043H19.8844V526.687H494.01V-13.043Z" fill="white"/>
</mask>
<g mask="url(#mask21_1_3308)">
<path d="M256.648 334.052C258.437 330.771 255.455 327.789 255.455 328.386C255.753 329.28 253.964 329.578 253.964 329.578C252.174 329.877 248.298 328.684 248.298 328.684C235.178 326.298 239.352 342.699 240.247 346.278C240.843 348.365 239.352 353.136 231.897 352.539C226.232 351.943 225.934 354.925 225.934 354.925C228.617 352.837 230.406 354.329 230.406 354.329C227.424 354.627 226.53 357.907 226.53 357.907C229.512 355.223 232.196 357.012 232.196 357.012C229.81 357.609 229.81 360.889 229.81 360.889C231.599 358.504 233.388 359.696 233.388 359.696C233.388 359.696 236.967 361.187 237.861 357.311C238.16 356.118 240.247 357.907 240.247 357.907C239.948 356.416 240.545 354.925 240.843 354.329C241.141 353.732 243.527 356.118 243.527 356.118C244.72 354.925 244.123 353.434 244.123 353.136C244.123 352.54 243.229 350.452 243.825 349.26C245.614 346.874 248 351.048 248 351.048C248.596 347.768 245.316 341.506 245.018 341.208C243.527 339.419 242.93 335.244 249.491 340.314C251.876 342.401 254.858 341.208 254.858 341.208C253.963 337.928 256.648 334.052 256.648 334.052Z" fill="white"/>
</g>
<mask id="mask22_1_3308" style="mask-type:luminance" maskUnits="userSpaceOnUse" x="19" y="-14" width="476" height="541">
<path d="M494.01 -13.043H19.8844V526.687H494.01V-13.043Z" fill="white"/>
</mask>
<g mask="url(#mask22_1_3308)">
<path d="M248.298 297.674C248.298 297.674 249.491 299.165 248.298 301.252C248.298 301.252 251.876 302.147 253.666 300.357C253.666 300.357 252.771 302.743 254.262 305.427C254.262 305.427 256.946 303.936 257.542 302.147C257.542 302.147 258.735 302.445 259.63 304.532C260.524 306.619 261.419 306.918 261.419 306.918C261.419 306.918 261.419 303.936 263.506 303.339C263.506 303.339 265.892 306.321 269.171 305.129C269.171 305.129 263.804 302.147 269.171 300.954C269.171 300.954 265.295 299.761 265.593 297.972C265.593 297.972 263.506 301.252 259.033 300.357C259.033 300.357 260.226 298.867 259.63 297.078C259.63 297.078 256.051 299.165 253.069 297.674C253.069 297.674 253.069 294.393 255.156 293.201C255.156 293.201 250.386 292.604 248.894 294.096C248.894 294.096 248 292.008 249.491 290.219C249.491 290.219 245.018 291.71 243.825 298.867C243.527 299.165 246.807 299.463 248.298 297.674Z" fill="white"/>
</g>
<mask id="mask23_1_3308" style="mask-type:luminance" maskUnits="userSpaceOnUse" x="19" y="-14" width="476" height="541">
<path d="M494.01 -13.043H19.8844V526.687H494.01V-13.043Z" fill="white"/>
</mask>
<g mask="url(#mask23_1_3308)">
<path d="M218.78 315.566C218.78 315.566 214.605 318.846 217.885 322.424C217.885 322.424 218.184 317.951 220.867 319.144C220.867 319.144 216.395 322.424 220.867 325.108C220.867 325.108 220.569 320.635 224.148 321.529C226.235 322.126 227.726 319.442 227.726 319.442C227.726 319.442 230.111 317.951 231.602 320.039C233.093 322.424 235.181 322.722 235.479 323.021C235.479 323.021 233.988 320.933 235.479 320.039C235.479 320.039 237.864 322.424 239.654 322.424C239.654 322.424 237.566 320.039 239.654 319.74C239.654 319.74 240.846 319.74 241.144 320.933C241.443 322.424 245.021 323.021 245.319 323.021C245.319 323.021 243.232 321.232 244.425 319.442V319.144C245.618 317.355 246.81 317.951 246.81 317.951C251.283 316.759 250.985 311.988 250.985 310.795C251.283 310.795 251.581 311.093 251.581 311.391C252.177 312.882 252.476 316.46 247.406 319.442C247.406 319.442 247.705 323.617 254.563 326.599C254.563 326.599 253.669 321.232 257.843 328.984C257.843 328.984 259.334 331.966 257.545 334.948C256.054 337.93 254.265 342.999 259.931 346.28C265.596 349.858 269.175 353.735 266.491 363.873C266.491 363.873 264.702 367.451 261.124 366.557C257.545 365.662 256.054 364.171 253.072 368.048C253.072 368.048 256.651 366.258 258.738 368.644C258.738 368.644 254.563 367.451 253.072 372.819C253.072 372.819 257.247 370.433 259.036 372.222C259.036 372.222 256.651 372.819 256.651 375.801C256.651 375.801 259.036 374.012 260.825 374.906C263.807 376.099 264.403 374.31 265.298 372.819C266.193 371.328 268.28 373.415 271.262 372.819C271.262 372.819 267.088 369.539 269.473 368.048C270.964 367.153 273.647 368.943 274.84 367.451C274.84 367.451 269.473 365.364 272.157 361.786C273.349 360.294 275.437 362.084 276.629 361.189C276.629 361.189 273.051 359.997 273.647 356.717C273.946 354.629 274.84 354.927 275.437 355.225C276.033 355.524 277.524 355.822 278.419 355.225C278.419 355.225 276.928 354.927 276.629 353.138C276.331 351.349 276.629 348.963 274.542 347.473C273.349 346.578 272.455 346.578 272.455 343.596C272.455 340.017 273.946 339.719 274.84 339.421C275.735 339.421 277.822 339.123 279.015 338.229C279.015 338.229 286.768 333.457 282.593 323.617C278.419 313.777 276.331 313.18 276.928 305.427C277.524 297.674 279.313 294.096 281.102 291.412C282.295 289.325 284.979 287.834 286.768 287.536C286.768 287.536 291.241 286.641 290.645 292.008C290.645 292.008 290.645 293.5 287.961 295.587C285.277 297.972 284.383 300.358 284.383 300.358C284.383 300.358 287.365 298.27 287.961 298.867C288.557 299.463 288.259 300.358 287.066 301.849C285.873 303.042 284.383 306.024 284.681 308.409C284.681 308.409 285.575 306.918 286.768 306.918C286.768 306.918 286.172 311.689 289.154 313.478C289.154 313.478 288.259 308.111 290.346 305.129C291.837 303.042 295.416 296.183 293.328 291.412C293.328 291.412 293.328 285.15 289.452 284.554C289.452 284.554 290.048 285.746 289.75 285.448C289.452 285.15 277.524 284.256 275.139 303.042C275.139 303.936 274.542 306.62 274.542 306.62C274.542 306.62 274.244 311.391 271.262 307.813C271.262 307.813 270.964 311.689 274.84 314.075C278.717 316.758 271.262 316.46 269.771 313.777C269.771 313.777 269.771 316.758 273.647 318.547C277.524 320.039 276.928 322.126 270.665 320.635C270.665 320.635 272.455 323.319 277.524 323.319C282.593 323.319 282.891 331.072 281.102 332.861C278.419 335.247 276.928 334.948 275.735 334.65C274.244 334.352 273.647 334.65 273.647 334.65C273.647 334.65 270.665 331.668 270.069 328.984C269.771 326.897 265.596 323.319 265.596 323.319C265.596 323.319 263.211 320.337 264.106 314.373C265 308.409 265.298 306.62 265 305.726C265 305.726 263.509 305.427 262.913 304.533C262.913 304.533 262.018 306.918 262.018 308.409C262.018 308.409 259.036 307.813 257.843 305.427C256.949 303.042 256.054 303.638 256.054 303.638C256.054 303.638 254.265 306.024 252.177 306.62C252.177 306.62 251.283 306.322 251.283 303.936V302.445V301.551C251.283 301.551 248.003 302.445 245.916 301.551C245.916 301.551 246.512 300.06 245.916 299.165C245.916 299.165 244.425 300.06 241.443 299.463C241.443 299.463 240.846 296.78 243.53 292.605C243.53 292.605 243.828 291.412 242.337 288.728C240.846 286.343 238.461 280.975 240.548 277.397C242.039 275.011 241.443 271.731 239.355 270.539C237.566 269.346 236.373 269.346 233.69 270.241C233.69 270.241 237.268 269.942 237.268 272.924C237.268 272.924 233.392 269.048 230.111 272.924C230.111 272.924 234.584 272.328 233.69 275.906C233.69 275.906 230.41 271.433 227.129 276.8C227.129 276.8 231.602 276.204 231.602 280.081C231.304 282.764 234.882 283.659 234.882 283.659C234.882 283.659 235.777 291.412 231.304 291.114C231.304 291.114 233.988 292.903 235.18 292.605C235.18 292.605 235.479 295.587 232.795 295.885C232.795 295.885 234.286 297.376 236.373 297.376C236.373 297.376 236.672 298.27 235.479 298.867C233.988 299.762 233.988 302.147 233.988 302.445C233.988 302.445 235.479 301.252 237.864 302.445C240.25 303.638 243.232 302.744 243.828 302.445C243.828 302.445 244.425 302.147 245.021 302.147C244.723 302.445 244.425 303.042 243.828 303.936C242.934 305.129 241.741 306.62 240.548 308.111C237.268 311.391 231.602 314.671 223.253 310.795C221.166 309.9 217.587 309.602 216.096 311.093C214.605 312.584 214.009 314.373 215.5 316.46C216.096 318.25 216.096 314.97 218.78 315.566Z" fill="white"/>
</g>
<mask id="mask24_1_3308" style="mask-type:luminance" maskUnits="userSpaceOnUse" x="19" y="-14" width="476" height="541">
<path d="M494.01 -13.043H19.8844V526.687H494.01V-13.043Z" fill="white"/>
</mask>
<g mask="url(#mask24_1_3308)">
<path d="M257.84 292.606C255.157 293.799 255.455 296.482 255.455 296.482C259.63 296.184 260.524 294.395 260.524 294.395C262.91 294.991 261.419 298.271 261.121 298.57H261.717C262.612 298.57 264.401 297.675 266.19 295.289C266.19 295.886 266.786 299.763 272.75 299.464C272.75 299.464 268.874 297.675 269.768 295.289V294.991C272.154 297.377 275.434 294.395 275.434 294.395C272.154 294.395 271.856 292.606 271.856 291.711C275.732 294.097 277.82 290.22 277.223 289.624C277.223 289.624 270.365 292.308 276.03 280.082C276.627 278.591 278.714 276.205 276.627 274.118C274.54 272.03 273.645 268.452 276.03 266.663C276.03 266.663 273.347 265.47 269.768 267.856C267.979 269.049 266.488 268.452 266.488 268.452C266.488 268.452 263.506 266.961 260.822 268.154C258.735 269.049 258.139 270.242 257.84 270.837C256.35 270.242 253.666 272.03 253.368 272.03C253.07 272.03 253.368 273.223 253.07 273.819C252.771 274.416 252.473 276.504 255.157 276.504C257.84 276.205 259.63 275.609 259.63 275.609C259.63 275.609 260.226 276.205 260.524 277.696C260.822 279.486 261.717 282.169 258.139 282.467L259.033 283.362C259.928 283.958 262.91 283.958 263.208 282.169C263.804 280.678 264.699 280.38 264.699 280.38C264.699 280.38 266.19 284.555 260.226 285.151C254.262 285.747 250.684 287.835 249.491 292.308C256.648 290.519 257.84 292.606 257.84 292.606ZM263.506 272.03C262.314 272.925 261.121 272.627 259.63 271.136C261.121 269.347 263.208 268.75 266.19 270.837C266.19 270.837 264.699 271.136 263.506 272.03Z" fill="white"/>
</g>
<mask id="mask25_1_3308" style="mask-type:luminance" maskUnits="userSpaceOnUse" x="19" y="-14" width="476" height="541">
<path d="M494.01 -13.043H19.8844V526.687H494.01V-13.043Z" fill="white"/>
</mask>
<g mask="url(#mask25_1_3308)">
<path d="M199.695 231.179L190.153 215.077L180.313 231.477L190.153 249.965L199.695 231.179Z" fill="white"/>
</g>
<mask id="mask26_1_3308" style="mask-type:luminance" maskUnits="userSpaceOnUse" x="19" y="-14" width="476" height="541">
<path d="M494.01 -13.043H19.8844V526.687H494.01V-13.043Z" fill="white"/>
</mask>
<g mask="url(#mask26_1_3308)">
<path d="M338.055 231.179L328.215 215.077L318.374 231.477L328.513 249.965L338.055 231.179Z" fill="white"/>
</g>
<mask id="mask27_1_3308" style="mask-type:luminance" maskUnits="userSpaceOnUse" x="19" y="-14" width="476" height="541">
<path d="M494.01 -13.043H19.8844V526.687H494.01V-13.043Z" fill="white"/>
</mask>
<g mask="url(#mask27_1_3308)">
<path d="M257.247 391.905H258.439C314.501 380.872 358.932 330.479 359.525 277.099V145.001H312.113C315.095 143.808 317.48 140.826 317.48 137.247C317.48 132.775 313.902 128.898 309.131 128.898H297.501C292.73 128.302 291.836 123.531 291.836 123.531C286.17 129.495 280.504 120.251 280.504 120.251L270.664 123.531L268.278 119.058C269.471 116.672 270.962 114.287 272.453 113.094C275.137 110.708 276.031 110.41 276.031 110.41C274.839 107.726 274.242 105.341 274.242 104.446C274.541 104.148 276.628 103.254 278.715 102.359C279.61 102.061 280.504 101.762 281.399 101.464H282.89L281.697 100.272C281.995 100.272 282.592 100.868 282.89 100.868C283.486 101.166 284.083 101.464 284.679 101.464C285.275 101.464 286.17 101.464 285.872 100.868C286.17 100.868 286.767 101.166 287.065 101.166H288.257C288.555 100.868 288.854 100.868 289.152 100.57C289.45 100.272 289.748 100.272 290.047 99.9736C290.047 99.6752 290.344 99.6751 290.344 99.3772C290.344 99.0787 290.344 98.7808 290.047 98.7808C289.45 98.1844 288.854 98.1844 288.257 97.8859L286.17 97.2895C285.574 96.9916 285.275 96.9916 284.679 96.6931C283.188 96.0967 284.679 96.6931 285.275 96.6931H286.767C287.363 96.6931 287.661 96.3952 288.257 96.3952L289.748 95.7988C289.748 95.7988 288.257 96.3952 284.977 94.0096C283.785 93.1147 283.188 91.9219 282.293 91.0276C280.504 88.9405 278.715 86.8528 276.628 85.0636C274.541 83.2744 272.453 81.4852 270.067 80.2924C267.98 79.1001 265.595 78.2052 262.911 78.2052H262.613C262.613 77.9073 262.016 73.1361 264.7 67.1721C266.191 63.8922 266.489 60.6117 264.998 57.9281C263.805 55.841 262.016 54.6482 259.929 54.0518C259.631 54.0518 256.052 53.4554 251.878 56.4374C250.685 57.0338 249.492 57.6302 248.3 58.2261C251.878 54.0518 259.631 49.877 261.122 49.5785V49.2806C260.823 49.2806 255.754 49.5785 252.474 51.6662C253.071 50.4734 253.667 48.3857 253.071 45.1058V44.8079H252.772C252.772 44.8079 245.019 46.5971 245.019 57.3317C245.019 57.3317 245.019 58.8225 244.423 60.6117C243.528 61.2081 243.23 61.8045 243.23 61.8045C243.528 61.5066 243.827 61.5066 244.125 61.5066C243.827 62.103 243.528 62.9973 242.932 63.5937C241.143 65.9793 239.652 70.1541 239.652 73.7325V74.0304L239.95 73.7325C239.95 73.7325 242.932 71.6448 243.528 68.9613C243.827 67.7685 244.721 66.8742 245.019 66.2778C245.318 67.4706 245.616 70.1541 245.616 70.7505V71.0484H245.914C246.51 70.452 248.896 67.1721 246.51 62.6994C246.212 62.103 246.212 61.2081 246.212 60.3138C250.089 59.4189 252.772 60.9102 253.965 61.5066C254.562 62.103 255.158 62.6994 255.456 63.5937C256.052 65.3829 255.754 67.4706 254.562 69.5577C253.667 71.6448 252.474 73.1361 251.58 74.6268C249.194 78.5037 247.405 81.1873 248.001 87.1513C248.896 94.0096 253.369 97.2895 256.052 98.4823C257.544 99.9736 258.438 102.359 259.034 103.551C259.929 105.341 259.034 105.043 259.034 105.043C253.965 105.341 252.176 102.657 248.597 101.166C247.703 100.868 246.808 100.57 245.914 100.57C243.827 99.6751 240.845 99.6751 238.161 100.57C233.092 102.061 229.812 106.236 231.004 109.814C231.302 111.007 232.197 112.199 233.688 112.795C234.881 113.392 236.372 113.69 238.161 113.69C239.354 113.69 240.845 113.392 242.336 113.094C246.51 111.603 249.492 108.621 249.79 105.639C251.58 106.236 256.649 110.112 260.526 111.603C264.7 113.392 266.191 108.621 266.191 108.621C267.384 110.708 264.402 117.567 262.613 121.444L260.823 122.636L259.929 118.163L255.754 123.829C254.264 123.232 249.79 117.865 249.79 117.865C249.194 123.531 247.405 125.021 246.808 125.32L236.968 118.759C236.968 123.232 232.495 125.916 230.11 125.916L223.549 122.636C224.146 127.407 220.269 128.302 219.076 128.302H207.745C203.272 128.302 199.396 131.88 199.396 136.651C199.396 140.229 201.483 143.211 204.763 144.404H156.158V276.503C156.754 330.476 201.188 380.873 257.247 391.905ZM302.274 132.479H302.572C307.94 131.286 311.518 133.075 311.518 133.075C313.307 133.97 313.904 135.162 313.605 136.355C313.307 138.741 310.027 141.424 309.729 139.934C309.132 136.653 305.554 135.162 305.554 135.162C305.554 135.162 300.783 132.777 302.274 132.479ZM310.325 167.665C310.325 167.367 310.623 166.771 310.623 166.473C308.835 163.193 307.343 160.509 306.747 159.614C306.449 159.316 306.449 159.316 306.15 159.018C305.256 157.825 304.66 157.229 305.256 156.93C305.554 156.632 306.15 156.93 306.747 156.93C306.747 156.93 308.834 158.123 311.22 162.298C311.518 162.596 311.518 162.894 311.816 163.491C313.307 160.211 315.096 158.123 317.184 158.123C319.271 158.123 321.06 160.211 322.551 163.491C322.849 162.894 323.148 162.298 323.446 162C325.831 157.825 327.919 156.632 327.919 156.632C328.217 156.334 328.813 156.036 329.41 156.632C329.708 157.229 329.41 157.527 328.515 158.719L327.919 159.316C327.024 160.211 325.533 162.894 323.744 166.473C324.042 166.771 324.042 166.771 324.34 167.367C333.882 165.578 341.338 165.876 341.933 168.262C342.53 170.051 337.163 172.735 332.392 175.419C337.163 178.102 342.53 180.786 341.933 182.575C341.039 185.259 334.181 185.557 324.638 183.768L324.34 185.855V186.452L324.937 187.346C324.937 187.346 327.62 192.117 329.41 193.907C330.006 194.503 329.708 194.801 329.708 194.801C329.708 195.099 329.41 195.099 329.112 195.099C328.813 195.099 328.217 194.801 327.322 194.503C326.726 194.204 325.533 192.415 323.744 189.433C323.446 190.03 323.446 190.925 323.148 191.521C321.656 195.397 319.868 197.485 317.482 197.485C315.096 197.485 312.711 194.503 311.518 189.732C310.027 192.415 308.834 194.204 308.238 194.503C307.343 195.099 306.747 195.099 306.449 195.099C306.15 195.099 306.15 195.099 305.853 194.801C305.853 194.801 305.554 194.204 306.15 193.907C307.94 191.819 310.623 187.346 310.623 187.048C310.623 187.048 310.922 186.75 310.922 186.153C310.922 186.153 310.623 184.066 310.623 183.47C301.379 185.259 294.223 184.961 293.627 182.277C293.03 180.488 297.801 177.506 302.871 174.822C301.379 174.226 300.186 173.331 298.994 172.735C295.714 170.945 293.328 169.156 293.627 167.963C293.328 166.174 300.485 165.876 310.325 167.665ZM255.759 57.0371C255.759 57.0371 256.951 55.2478 260.231 57.0371C260.231 57.0371 259.039 59.4221 255.759 57.0371ZM257.548 81.1905C257.548 92.2236 267.686 96.1 267.985 96.3984C267.686 96.1 267.388 95.5036 267.388 95.2057C268.581 95.8021 269.774 96.3984 270.967 96.6964C271.563 96.9949 272.159 96.9949 272.756 97.2928H273.054C272.756 96.9949 272.457 96.3984 272.457 96.1C273.352 96.6964 274.247 96.9949 275.141 96.9949C275.439 96.9949 276.036 96.9949 276.334 96.6964L276.93 96.3984C277.229 96.3984 277.526 96.1 277.825 96.1C277.825 96.3984 277.526 96.6964 277.526 96.9949L276.93 97.5913C276.334 97.8892 275.738 98.1877 275.141 98.1877C274.843 98.1877 274.545 98.1877 274.247 97.8892C273.949 98.1877 273.352 98.1877 272.756 98.1877C272.159 98.1877 271.265 98.1877 270.668 97.8892C270.072 97.5913 269.774 97.5913 269.177 97.2928C266.195 97.5913 254.566 93.4164 257.548 81.1905ZM262.319 129.199C271.265 125.92 282.298 130.691 282.298 130.691C285.876 132.181 287.963 133.672 289.752 135.163C290.349 135.76 290.647 136.058 290.945 136.356C292.138 137.549 294.226 139.338 296.015 139.636C297.506 139.935 294.822 142.917 290.647 140.829C290.349 140.531 289.752 140.233 289.156 139.636C284.982 136.356 281.403 136.356 281.403 136.356C277.526 136.058 278.421 138.443 278.421 138.443C280.508 142.618 275.141 141.425 272.457 138.443C268.283 133.971 264.406 132.48 262.021 131.287C259.337 130.392 261.126 129.498 262.319 129.199ZM263.81 191.819C264.108 192.117 265.003 193.907 263.512 197.485C263.512 197.485 258.741 200.168 251.882 197.783C251.882 197.485 251.882 192.714 251.584 191.819C251.286 190.925 248.602 189.135 248.602 189.135C248.602 188.837 245.918 172.437 248.005 165.876C248.005 165.876 248.005 160.509 249.795 159.912C250.987 159.614 250.689 165.578 250.689 165.578V172.437C248.304 174.226 250.093 174.524 250.093 174.524C257.548 173.331 261.424 173.033 263.213 173.331H263.81C265.003 173.629 265.003 174.226 265.003 174.226C265.003 174.226 265.301 175.717 259.933 176.611C259.933 176.611 256.951 177.207 256.355 178.4C255.759 179.593 255.46 183.47 256.951 185.855C256.951 185.855 257.846 185.557 257.548 184.364C257.249 183.171 257.548 180.189 258.442 179.593C259.337 178.699 267.09 177.804 267.09 175.717C267.09 175.717 266.195 172.138 267.985 168.262C269.475 165.578 271.265 169.156 270.967 173.927C270.967 173.927 270.668 181.382 270.668 182.873C270.668 184.364 269.774 189.135 264.705 190.03C264.705 190.03 262.915 190.626 262.617 191.521C262.319 191.521 263.512 191.521 263.81 191.819ZM255.759 168.56C255.759 170.051 255.759 170.945 255.46 171.542C254.268 171.542 253.373 171.84 252.479 171.84C251.882 169.156 251.882 165.876 251.882 165.876L252.18 160.211C252.18 159.912 252.18 156.632 253.969 156.632C255.46 156.632 255.46 160.509 255.46 160.509C255.46 160.509 255.46 164.683 255.759 168.56ZM262.617 163.491C262.617 160.807 262.617 157.229 264.406 157.229C265.599 157.229 265.599 159.614 265.599 161.105V167.367C265.003 168.262 264.705 170.945 264.705 171.542C264.108 171.244 263.512 171.244 262.617 171.244C262.319 170.647 262.617 166.174 262.617 163.491ZM258.741 154.545H259.039C261.424 155.141 261.126 169.156 260.53 170.945C259.635 170.945 258.741 170.945 257.846 171.244C257.548 170.647 257.548 170.051 257.548 169.156C257.548 167.665 257.548 158.421 257.846 156.334C257.548 154.843 258.442 154.545 258.741 154.545ZM230.114 130.391C238.165 127.409 248.005 131.882 248.005 131.882C256.057 135.46 257.249 139.337 257.249 139.337C257.249 139.337 258.442 143.512 253.969 140.231C250.391 137.548 247.707 138.144 247.707 138.144C245.023 138.144 244.428 144.704 238.761 139.039C234.885 135.162 231.307 133.672 229.22 132.479C227.132 131.286 228.921 130.988 230.114 130.391ZM207.451 133.075C211.03 130.69 215.502 132.18 217.292 134.864C221.168 140.53 226.238 141.424 223.852 141.723C222.361 142.021 217.888 140.53 215.801 138.741C213.117 136.355 208.942 138.144 211.924 140.53C212.222 140.828 211.626 141.126 211.03 141.126C205.364 141.126 203.575 135.759 207.451 133.075ZM176.737 168.858C177.632 166.174 184.789 165.876 194.629 167.963C194.629 167.665 194.927 167.069 194.927 166.771C193.138 163.491 191.647 160.807 191.05 159.912L190.454 159.316C189.56 158.123 188.963 157.527 189.56 157.229C189.858 156.93 190.455 157.229 191.05 157.229C191.05 157.229 193.138 158.421 195.524 162.596C195.822 162.894 195.822 163.193 196.12 163.789C197.611 160.509 199.4 158.421 201.488 158.421C203.575 158.421 205.364 160.509 206.855 163.789C207.153 163.193 207.451 162.596 207.75 162.298C210.135 158.123 212.222 156.93 212.222 156.93C212.52 156.632 213.117 156.334 213.713 156.93C214.012 157.527 213.713 157.825 212.819 159.018C212.52 159.316 212.52 159.316 212.222 159.614C211.328 160.509 209.837 163.193 208.048 166.771C208.346 167.069 208.346 167.069 208.644 167.665C218.186 165.876 225.641 166.174 226.238 168.56C226.834 170.349 221.466 173.033 216.695 175.717C221.466 178.4 226.834 181.084 226.238 182.873C225.343 185.557 218.484 185.855 208.942 184.066L208.644 186.153V186.75L209.24 187.645C209.24 187.645 211.924 192.415 213.713 194.204C214.31 194.801 214.012 195.099 214.012 195.099C214.012 195.397 213.713 195.397 213.415 195.397C213.117 195.397 212.52 195.099 211.626 194.801C211.03 194.503 209.837 192.714 208.048 189.732C207.75 190.328 207.75 191.222 207.451 191.819C205.96 195.696 204.171 197.783 201.786 197.783C199.4 197.783 197.014 194.801 195.822 190.03C194.331 192.714 193.138 194.503 192.542 194.801C191.647 195.397 191.05 195.397 190.753 195.397C190.455 195.397 190.454 195.397 190.156 195.099C190.156 195.099 189.858 194.503 190.454 194.204C192.243 192.117 194.927 187.644 194.927 187.346C194.927 187.346 195.225 187.048 195.225 186.452C195.225 186.452 194.927 184.364 194.927 183.768C185.683 185.557 178.527 185.259 177.93 182.575C177.334 180.786 182.105 177.804 187.174 175.12C185.683 174.524 184.491 173.629 183.298 173.033C178.825 171.84 176.141 170.051 176.737 168.858ZM165.406 294.696C165.108 293.802 165.108 292.609 164.81 291.714C164.81 291.118 164.81 290.82 164.511 290.223C164.213 289.031 164.213 287.838 163.915 286.645V285.75C163.915 284.557 163.617 283.067 163.617 281.874V281.576C163.617 280.085 163.617 278.594 163.319 277.103V206.134H352.375V282.171C352.375 283.363 352.077 284.556 352.077 285.749C352.077 286.345 352.077 286.643 351.779 287.24C351.779 288.134 351.481 289.029 351.481 289.625C351.481 290.52 351.183 291.415 350.884 292.607C350.884 293.204 350.586 293.502 350.586 294.098C350.288 295.589 349.99 297.378 349.394 298.869H344.324V284.258H330.906V272.33H318.083V258.315H306.454V245.791H293.929V235.056H280.809L280.511 221.041H267.39L259.339 210.306L252.481 221.041H237.869V234.161H222.363V246.686H208.945V258.613H195.824V272.032H182.405V283.661H172.863V295.887H166.303C165.706 295.589 165.704 295.293 165.406 294.696ZM184.192 336.145C183.894 335.847 183.894 335.549 183.596 335.25C182.999 334.356 182.403 333.461 181.806 332.865C181.806 332.865 181.807 332.567 181.509 332.567C179.719 329.883 177.93 326.901 176.439 324.217C176.439 323.919 176.141 323.919 176.141 323.621C174.65 320.639 173.159 317.657 171.668 314.377H183.894V301.257H196.418V287.838H210.732V274.419H223.852V261.299H237.867V247.88H251.286V235.356H266.195V248.476H278.123V261.597H290.945V274.717H304.066V287.539H316.888V301.257H333.289V316.465H343.725C343.129 317.359 342.831 318.552 342.235 319.446V319.744C340.744 322.726 339.253 325.708 337.463 328.392C337.463 328.392 337.463 328.69 337.166 328.69C336.569 329.585 335.973 330.479 335.376 331.374C333.587 334.058 331.499 337.04 329.711 339.425C329.412 339.723 329.412 339.723 329.114 340.022L323.15 347.178C322.852 347.476 322.852 347.775 322.554 347.775C321.958 348.371 321.361 349.266 320.765 349.862C320.466 350.16 320.168 350.458 319.87 350.756C317.783 352.844 315.696 354.633 313.608 356.72C313.012 357.019 312.714 357.615 312.117 357.913C311.521 358.509 310.924 358.808 310.328 359.404C309.732 359.702 309.135 360.299 308.837 360.597C307.942 361.193 307.346 361.789 306.452 362.386C305.557 362.982 304.96 363.579 304.066 364.175C303.47 364.473 302.873 365.07 302.575 365.368C301.978 365.964 301.084 366.263 300.488 366.859C299.891 367.157 299.295 367.456 298.996 367.753C298.102 368.35 296.909 368.946 296.015 369.543C295.418 369.841 295.12 370.139 294.524 370.438C293.629 371.034 292.734 371.63 291.542 371.928C290.945 372.226 290.647 372.525 290.051 372.823C289.156 373.419 288.262 373.717 287.367 374.314C287.069 374.612 286.472 374.612 286.175 374.91C284.982 375.507 283.49 376.103 282.298 376.699C282 376.997 281.701 376.997 281.403 376.997C280.508 377.296 279.316 377.892 278.421 378.19C278.123 378.489 277.526 378.489 277.229 378.787C276.036 379.085 275.141 379.681 273.949 379.979C273.65 379.979 273.352 380.278 273.054 380.278C271.563 380.874 270.37 381.172 268.879 381.769C268.581 381.769 267.985 382.067 267.686 382.067C266.493 382.365 265.599 382.663 264.406 382.961C264.108 382.961 263.512 383.259 263.213 383.259C261.723 383.558 260.231 383.856 258.741 384.154C257.249 383.856 255.759 383.558 254.268 383.259C253.969 383.259 253.373 382.961 253.075 382.961C251.882 382.663 250.987 382.365 249.795 382.067C249.497 382.067 248.9 381.769 248.602 381.769C247.111 381.47 245.918 380.874 244.428 380.278C244.129 380.278 244.129 380.278 243.831 379.979C242.638 379.681 241.446 379.085 240.253 378.489C239.954 378.19 239.358 378.19 239.06 377.892C238.165 377.594 236.972 376.997 236.078 376.699C235.779 376.401 235.183 376.401 234.885 376.103C233.692 375.507 232.202 374.91 231.009 374.314C230.71 374.015 230.412 374.015 230.114 373.717C229.22 373.121 228.027 372.823 227.132 372.226C226.536 371.928 226.238 371.63 225.641 371.332C224.746 370.735 223.852 370.437 223.256 369.841C222.659 369.543 222.361 369.245 221.765 368.946C220.572 368.35 219.379 367.455 218.186 366.859C217.59 366.561 217.292 366.263 216.695 365.964C216.099 365.368 215.204 365.07 214.608 364.474C212.91 363.047 211.166 362.042 209.539 360.597C200.95 352.681 190.372 344.77 184.192 336.145Z" fill="white"/>
</g>
<mask id="mask28_1_3308" style="mask-type:luminance" maskUnits="userSpaceOnUse" x="19" y="-14" width="476" height="541">
<path d="M494.01 -13.043H19.8844V526.687H494.01V-13.043Z" fill="white"/>
</mask>
<g mask="url(#mask28_1_3308)">
<path d="M205.956 185.254C205.956 184.657 206.255 183.763 206.255 183.763C204.465 183.465 202.974 182.868 201.185 182.57C199.396 183.166 197.607 183.465 195.818 183.763C195.818 183.763 195.818 184.657 196.116 185.254C196.712 185.552 200.589 186.745 205.956 185.254Z" fill="white"/>
</g>
<mask id="mask29_1_3308" style="mask-type:luminance" maskUnits="userSpaceOnUse" x="19" y="-14" width="476" height="541">
<path d="M494.01 -13.043H19.8844V526.687H494.01V-13.043Z" fill="white"/>
</mask>
<g mask="url(#mask29_1_3308)">
<path d="M204.763 166.169C204.763 165.87 204.763 165.573 204.465 165.573C203.571 162.59 202.08 161.398 200.887 161.398C199.694 161.398 198.203 162.59 197.309 165.573C197.309 165.87 197.01 166.169 197.01 166.467C200.291 164.976 202.974 165.573 204.763 166.169Z" fill="white"/>
</g>
<mask id="mask30_1_3308" style="mask-type:luminance" maskUnits="userSpaceOnUse" x="19" y="-14" width="476" height="541">
<path d="M494.01 -13.043H19.8844V526.687H494.01V-13.043Z" fill="white"/>
</mask>
<g mask="url(#mask30_1_3308)">
<path d="M196.117 186.749C196.415 188.538 196.415 188.538 197.011 189.432C197.608 189.731 200.59 190.625 205.062 189.432C205.361 188.836 205.659 187.643 205.659 186.749C203.87 187.345 202.08 187.345 200.59 187.345C198.502 187.345 197.011 187.047 196.117 186.749Z" fill="white"/>
</g>
<mask id="mask31_1_3308" style="mask-type:luminance" maskUnits="userSpaceOnUse" x="19" y="-14" width="476" height="541">
<path d="M494.01 -13.043H19.8844V526.687H494.01V-13.043Z" fill="white"/>
</mask>
<g mask="url(#mask31_1_3308)">
<path d="M313.308 191.218C313.607 192.112 314.203 193.007 314.501 193.305C316.589 193.901 316.887 193.901 319.272 193.305C319.869 192.708 319.869 192.112 320.465 190.919C318.974 191.218 318.08 191.218 316.887 191.218C315.396 191.516 313.905 191.516 313.308 191.218Z" fill="white"/>
</g>
<mask id="mask32_1_3308" style="mask-type:luminance" maskUnits="userSpaceOnUse" x="19" y="-14" width="476" height="541">
<path d="M494.01 -13.043H19.8844V526.687H494.01V-13.043Z" fill="white"/>
</mask>
<g mask="url(#mask32_1_3308)">
<path d="M197.607 191.218C197.905 192.112 198.501 193.007 198.799 193.305C200.887 193.901 201.185 193.901 203.571 193.305C204.167 192.708 204.167 192.112 204.763 190.919C203.272 191.218 202.378 191.218 201.185 191.218C199.694 191.516 198.203 191.516 197.607 191.218Z" fill="white"/>
</g>
<mask id="mask33_1_3308" style="mask-type:luminance" maskUnits="userSpaceOnUse" x="19" y="-14" width="476" height="541">
<path d="M494.01 -13.043H19.8844V526.687H494.01V-13.043Z" fill="white"/>
</mask>
<g mask="url(#mask33_1_3308)">
<path d="M321.658 185.254C321.658 184.657 321.956 183.763 321.956 183.763C320.167 183.465 318.676 182.868 316.887 182.57C315.098 183.166 313.308 183.465 311.519 183.763C311.519 183.763 311.519 184.657 311.818 185.254C312.413 185.552 316.29 186.745 321.658 185.254Z" fill="white"/>
</g>
<mask id="mask34_1_3308" style="mask-type:luminance" maskUnits="userSpaceOnUse" x="19" y="-14" width="476" height="541">
<path d="M494.01 -13.043H19.8844V526.687H494.01V-13.043Z" fill="white"/>
</mask>
<g mask="url(#mask34_1_3308)">
<path d="M311.813 186.749C312.111 188.538 312.111 188.538 312.708 189.432C313.304 189.731 316.286 190.625 320.759 189.432C321.057 188.836 321.355 187.643 321.355 186.749C319.566 187.345 317.777 187.345 316.286 187.345C314.497 187.345 313.006 187.047 311.813 186.749Z" fill="white"/>
</g>
<mask id="mask35_1_3308" style="mask-type:luminance" maskUnits="userSpaceOnUse" x="19" y="-14" width="476" height="541">
<path d="M494.01 -13.043H19.8844V526.687H494.01V-13.043Z" fill="white"/>
</mask>
<g mask="url(#mask35_1_3308)">
<path d="M320.465 166.169C320.465 165.87 320.465 165.573 320.167 165.573C319.272 162.59 317.782 161.398 316.589 161.398C315.396 161.398 313.905 162.59 313.01 165.573C313.01 165.87 312.712 166.169 312.712 166.467C315.992 164.976 318.974 165.573 320.465 166.169Z" fill="white"/>
</g>
</g>
</g>
<defs>
<clipPath id="clip0_1_3308">
<rect width="512" height="512" fill="white"/>
</clipPath>
<clipPath id="clip1_1_3308">
<rect width="445.546" height="512" fill="white" transform="translate(33.7271 0.5)"/>
</clipPath>
</defs>
</svg>
